<svg xmlns="http://www.w3.org/2000/svg" viewBox="0 0 64 64" role="img" aria-label="Agri-tech">
  <rect width="64" height="64" rx="14" fill="#0f3d2e"/>
  <path fill="#ffffff" d="M31.96 13.06c.84-1.62 3.18-1.62 4.02 0l18.18 35.42c.78 1.5-.32 3.28-2.02 3.28h-6.62c-.86 0-1.64-.48-2.02-1.26l-2.78-5.76H27.22l-2.78 5.76c-.38.78-1.16 1.26-2.02 1.26H15.8c-1.7 0-2.8-1.78-2.02-3.28l18.18-35.42Zm-1.38 24.7h6.78l-3.38-7.18-3.4 7.18Z"/>
  <path fill="#ffffff" d="M45.86 12.72c-5.82.16-10.02 3.06-11.96 8.14 5.18.78 10.08-2.52 11.96-8.14Z"/>
</svg>
